# xmcd CD database file
#
# Track frame offsets:
#	150
#	14725
#	30335
#	47767
#	66525
#	81557
#	101115
#	117687
#	138792
#	161300
#	181575
#	200445
#	219302
#	241640
#	261197
#
# Disc length: 3711 seconds
#
# Revision: 0
# Processed by: cddbd v1.5PL3 Copyright (c) Steve Scherf et al.
# Submitted via: CDex 1.51
#
DISCID=cf0e7d0f
DTITLE=原田　知世 - Single Collection 1982〜1988
DYEAR=1988
DGENRE=Pop
TTITLE0=悲しいくらいほんとの話
TTITLE1=ときめきのアクシデント
TTITLE2=時をかける少女
TTITLE3=ダンデライオン〜遅咲きのたんぽぽ〜
TTITLE4=地下鉄のザジ (Zazie Dans Le Metro)
TTITLE5=守ってあげたい
TTITLE6=愛情物語
TTITLE7=天国にいちばん近い島
TTITLE8=早春物語
TTITLE9=どうしてますか
TTITLE10=雨のプラネタリウム
TTITLE11=空に抱かれながら
TTITLE12=逢えるかもしれない
TTITLE13=彼と彼女のソネット
TTITLE14=太陽になりたい
EXTD=YEAR: 1988
EXTT0=
EXTT1=
EXTT2=
EXTT3=
EXTT4=
EXTT5=
EXTT6=
EXTT7=
EXTT8=
EXTT9=
EXTT10=
EXTT11=
EXTT12=
EXTT13=
EXTT14=
PLAYORDER=
